{
   "accessors" : [
      {
         "bufferView" : 0,
         "componentType" : 5123,
         "count" : 432,
         "max" : [ 431 ],
         "min" : [ 0 ],
         "name" : "buffer-0-accessor-indices-buffer-0-mesh-0",
         "type" : "SCALAR"
      },
      {
         "bufferView" : 2,
         "componentType" : 5126,
         "count" : 432,
         "max" : [ 53.06279754638672, 206.5275573730469, 106.1111450195312 ],
         "min" : [ -53.06279754638672, -5.69482421875, -106.1112289428711 ],
         "name" : "buffer-0-accessor-position-buffer-0-mesh-0",
         "type" : "VEC3"
      },
      {
         "bufferView" : 2,
         "byteOffset" : 5184,
         "componentType" : 5126,
         "count" : 432,
         "max" : [ 0.9958000183105469, 1, 1 ],
         "min" : [ -0.9958000183105469, -1, -1 ],
         "name" : "buffer-0-accessor-normal-buffer-0-mesh-0",
         "type" : "VEC3"
      },
      {
         "bufferView" : 1,
         "componentType" : 5126,
         "count" : 0,
         "max" : [ 0, 0 ],
         "min" : [ 0, 0 ],
         "name" : "buffer-0-accessor-texcoord-buffer-0-mesh-0",
         "type" : "VEC2"
      },
      {
         "bufferView" : 3,
         "componentType" : 5126,
         "count" : 0,
         "max" : [ 0, 0, 0, 0 ],
         "min" : [ 0, 0, 0, 0 ],
         "name" : "buffer-0-accessor-color-buffer-0-mesh-0",
         "type" : "VEC4"
      },
      {
         "bufferView" : 0,
         "byteOffset" : 864,
         "componentType" : 5123,
         "count" : 192,
         "max" : [ 191 ],
         "min" : [ 0 ],
         "name" : "buffer-0-accessor-indices-buffer-0-mesh-0",
         "type" : "SCALAR"
      },
      {
         "bufferView" : 2,
         "byteOffset" : 10368,
         "componentType" : 5126,
         "count" : 192,
         "max" : [ 5.382472991943359, 199.9578094482422, 99.54149627685547 ],
         "min" : [ -4.516458988189697, 0, -99.54146575927734 ],
         "name" : "buffer-0-accessor-position-buffer-0-mesh-0",
         "type" : "VEC3"
      },
      {
         "bufferView" : 2,
         "byteOffset" : 12672,
         "componentType" : 5126,
         "count" : 192,
         "max" : [ 0.9958000183105469, 0.9765999913215637, 0.9765999913215637 ],
         "min" : [ -0.9958000183105469, -0.9765999913215637, -0.9765999913215637 ],
         "name" : "buffer-0-accessor-normal-buffer-0-mesh-0",
         "type" : "VEC3"
      },
      {
         "bufferView" : 1,
         "componentType" : 5126,
         "count" : 0,
         "max" : [ 0, 0 ],
         "min" : [ 0, 0 ],
         "name" : "buffer-0-accessor-texcoord-buffer-0-mesh-0",
         "type" : "VEC2"
      },
      {
         "bufferView" : 3,
         "componentType" : 5126,
         "count" : 0,
         "max" : [ 0, 0, 0, 0 ],
         "min" : [ 0, 0, 0, 0 ],
         "name" : "buffer-0-accessor-color-buffer-0-mesh-0",
         "type" : "VEC4"
      }
   ],
   "asset" : {
      "generator" : "Obj2GltfConverter",
      "version" : "2.0"
   },
   "bufferViews" : [
      {
         "buffer" : 0,
         "byteLength" : 1248,
         "byteStride" : 0,
         "name" : "buffer-0-bufferview-ushort",
         "target" : 34963
      },
      {
         "buffer" : 0,
         "byteLength" : 1,
         "name" : "buffer-0-bufferview-vec2"
      },
      {
         "buffer" : 0,
         "byteLength" : 14976,
         "byteOffset" : 1248,
         "byteStride" : 12,
         "name" : "buffer-0-bufferview-vec3",
         "target" : 34962
      },
      {
         "buffer" : 0,
         "byteLength" : 1,
         "name" : "buffer-0-bufferview-vec4"
      }
   ],
   "buffers" : [
      {
         "byteLength" : 16224,
         "name" : "buffer-0",
         "uri" : "sun_02.bin"
      }
   ],
   "materials" : [
      {
         "doubleSided" : true,
         "name" : "FF9800",
         "pbrMetallicRoughness" : {
            "baseColorFactor" : [ 1, 0.596078, 0, 1 ],
            "metallicFactor" : 0,
            "roughnessFactor" : 0.7448017359246658
         }
      },
      {
         "doubleSided" : true,
         "name" : "FF5722",
         "pbrMetallicRoughness" : {
            "baseColorFactor" : [ 1, 0.341176, 0.133333, 1 ],
            "metallicFactor" : 0,
            "roughnessFactor" : 0.7448017359246658
         }
      }
   ],
   "meshes" : [
      {
         "name" : "buffer-0-mesh-0",
         "primitives" : [
            {
               "attributes" : {
                  "NORMAL" : 2,
                  "POSITION" : 1,
                  "TEXCOORD_0" : 3
               },
               "indices" : 0,
               "material" : 0
            },
            {
               "attributes" : {
                  "NORMAL" : 7,
                  "POSITION" : 6,
                  "TEXCOORD_0" : 8
               },
               "indices" : 5,
               "material" : 1
            }
         ]
      }
   ],
   "nodes" : [
      {
         "mesh" : 0,
         "name" : "node-0"
      }
   ],
   "scenes" : [
      {
         "name" : "scene-0",
         "nodes" : [ 0 ]
      }
   ]
}
