{
  "accessors": [
    {
      "bufferView": 1,
      "componentType": 5126,
      "count": 20,
      "max": [
        2,
        2,
        0.05000000074505806
      ],
      "min": [
        -2,
        -2,
        0
      ],
      "type": "VEC3"
    },
    {
      "bufferView": 1,
      "byteOffset": 240,
      "componentType": 5126,
      "count": 20,
      "max": [
        1,
        1,
        1
      ],
      "min": [
        -1,
        -1,
        0
      ],
      "type": "VEC3"
    },
    {
      "bufferView": 2,
      "componentType": 5126,
      "count": 20,
      "max": [
        0.99997317790985107,
        0.029935315251350403,
        0.99955195188522339,
        1
      ],
      "min": [
        0,
        0,
        -0.99955207109451294,
        1
      ],
      "type": "VEC4"
    },
    {
      "bufferView": 0,
      "componentType": 5125,
      "count": 30,
      "max": [
        19
      ],
      "min": [
        0
      ],
      "type": "SCALAR"
    },
    {
      "bufferView": 1,
      "byteOffset": 480,
      "componentType": 5126,
      "count": 58,
      "max": [
        1.472790002822876,
        1.7231500148773193,
        2.1370999813079834
      ],
      "min": [
        -1.3847500085830688,
        -0.65432000160217285,
        0.29813000559806824
      ],
      "type": "VEC3"
    },
    {
      "bufferView": 1,
      "byteOffset": 1176,
      "componentType": 5126,
      "count": 58,
      "max": [
        1,
        1,
        0
      ],
      "min": [
        -1,
        -1,
        0
      ],
      "type": "VEC3"
    },
    {
      "bufferView": 0,
      "byteOffset": 120,
      "componentType": 5125,
      "count": 84,
      "max": [
        57
      ],
      "min": [
        0
      ],
      "type": "SCALAR"
    },
    {
      "bufferView": 1,
      "byteOffset": 1872,
      "componentType": 5126,
      "count": 340,
      "max": [
        1.4343400001525879,
        0.030230000615119934,
        0.99371999502182007
      ],
      "min": [
        -1.3648099899291992,
        -1.7531000375747681,
        0.05000000074505806
      ],
      "type": "VEC3"
    },
    {
      "bufferView": 1,
      "byteOffset": 5952,
      "componentType": 5126,
      "count": 340,
      "max": [
        1,
        1,
        1
      ],
      "min": [
        -1,
        -1,
        0
      ],
      "type": "VEC3"
    },
    {
      "bufferView": 0,
      "byteOffset": 456,
      "componentType": 5125,
      "count": 558,
      "max": [
        339
      ],
      "min": [
        0
      ],
      "type": "SCALAR"
    },
    {
      "bufferView": 1,
      "byteOffset": 10032,
      "componentType": 5126,
      "count": 177,
      "max": [
        1.5604000091552734,
        1.6680799722671509,
        2.299220085144043
      ],
      "min": [
        -1.2177300453186035,
        -1.8403500318527222,
        0.40478000044822693
      ],
      "type": "VEC3"
    },
    {
      "bufferView": 1,
      "byteOffset": 12156,
      "componentType": 5126,
      "count": 177,
      "max": [
        1,
        1,
        1
      ],
      "min": [
        -1,
        -1,
        -0.7470395565032959
      ],
      "type": "VEC3"
    },
    {
      "bufferView": 0,
      "byteOffset": 2688,
      "componentType": 5125,
      "count": 333,
      "max": [
        176
      ],
      "min": [
        0
      ],
      "type": "SCALAR"
    },
    {
      "bufferView": 1,
      "byteOffset": 14280,
      "componentType": 5126,
      "count": 280,
      "max": [
        1.4922200441360474,
        1.7546499967575073,
        1.658750057220459
      ],
      "min": [
        -1.4073499441146851,
        -0.69275999069213867,
        0.29813000559806824
      ],
      "type": "VEC3"
    },
    {
      "bufferView": 1,
      "byteOffset": 17640,
      "componentType": 5126,
      "count": 280,
      "max": [
        1,
        1,
        1
      ],
      "min": [
        -1,
        -1,
        -0
      ],
      "type": "VEC3"
    },
    {
      "bufferView": 0,
      "byteOffset": 4020,
      "componentType": 5125,
      "count": 612,
      "max": [
        279
      ],
      "min": [
        0
      ],
      "type": "SCALAR"
    },
    {
      "bufferView": 1,
      "byteOffset": 21000,
      "componentType": 5126,
      "count": 187,
      "max": [
        1.4922200441360474,
        1.8008099794387817,
        0.31630998849868774
      ],
      "min": [
        -1.4471299648284912,
        -1.6847100257873535,
        0.05000000074505806
      ],
      "type": "VEC3"
    },
    {
      "bufferView": 1,
      "byteOffset": 23244,
      "componentType": 5126,
      "count": 187,
      "max": [
        1,
        1,
        1
      ],
      "min": [
        -1,
        -1,
        -0.0066299969330430031
      ],
      "type": "VEC3"
    },
    {
      "bufferView": 0,
      "byteOffset": 6468,
      "componentType": 5125,
      "count": 396,
      "max": [
        186
      ],
      "min": [
        0
      ],
      "type": "SCALAR"
    }
  ],
  "asset": {
    "extras": {
      "author": "Godheim (https://sketchfab.com/Godheim)",
      "license": "CC-BY-4.0 (http://creativecommons.org/licenses/by/4.0/)",
      "source": "https://sketchfab.com/models/78be68a1cbaf4176b13c20b3f9b47e2e",
      "title": "Low Poly Home"
    },
    "generator": "Sketchfab-3.18.6",
    "version": "2.0"
  },
  "bufferViews": [
    {
      "buffer": 0,
      "byteLength": 8052,
      "byteOffset": 0,
      "name": "floatBufferViews",
      "target": 34963
    },
    {
      "buffer": 0,
      "byteLength": 25488,
      "byteOffset": 8052,
      "byteStride": 12,
      "name": "floatBufferViews",
      "target": 34962
    },
    {
      "buffer": 0,
      "byteLength": 320,
      "byteOffset": 33540,
      "byteStride": 16,
      "name": "floatBufferViews",
      "target": 34962
    }
  ],
  "buffers": [
    {
      "byteLength": 33860,
      "uri": "scene.bin"
    }
  ],
  "materials": [
    {
      "doubleSided": true,
      "emissiveFactor": [
        0,
        0,
        0
      ],
      "name": "Pavillon-M.001",
      "pbrMetallicRoughness": {
        "baseColorFactor": [
          0.0272090267,
          0.0272090267,
          0.0272090267,
          1
        ],
        "metallicFactor": 0,
        "roughnessFactor": 0.59999999999999998
      }
    },
    {
      "doubleSided": true,
      "emissiveFactor": [
        0,
        0,
        0
      ],
      "name": "Material",
      "pbrMetallicRoughness": {
        "baseColorFactor": [
          0.42001983520000002,
          0.42001983520000002,
          0.42001983520000002,
          1
        ],
        "metallicFactor": 0,
        "roughnessFactor": 0.59999999999999998
      }
    },
    {
      "doubleSided": true,
      "emissiveFactor": [
        0,
        0,
        0
      ],
      "name": "Material.001",
      "pbrMetallicRoughness": {
        "baseColorFactor": [
          0.2395492196,
          0.054480563799999999,
          0.024685401499999999,
          1
        ],
        "metallicFactor": 0,
        "roughnessFactor": 0.59999999999999998
      }
    },
    {
      "doubleSided": true,
      "emissiveFactor": [
        0,
        0,
        0
      ],
      "name": "Material.002",
      "pbrMetallicRoughness": {
        "baseColorFactor": [
          0.050000000699999998,
          0.050000000699999998,
          0.050000000699999998,
          1
        ],
        "metallicFactor": 0,
        "roughnessFactor": 0.59999999999999998
      }
    },
    {
      "doubleSided": true,
      "emissiveFactor": [
        0,
        0,
        0
      ],
      "name": "Material.003",
      "pbrMetallicRoughness": {
        "baseColorFactor": [
          1,
          1,
          1,
          1
        ],
        "metallicFactor": 0,
        "roughnessFactor": 0.59999999999999998
      }
    },
    {
      "doubleSided": true,
      "emissiveFactor": [
        0,
        0,
        0
      ],
      "name": "Hemi",
      "pbrMetallicRoughness": {
        "baseColorFactor": [
          0.16263915600000001,
          0.16263915600000001,
          0.16263915600000001,
          1
        ],
        "metallicFactor": 0,
        "roughnessFactor": 0.59999999999999998
      }
    }
  ],
  "meshes": [
    {
      "name": "RES_T3_16_WEILL_02_0",
      "primitives": [
        {
          "attributes": {
            "NORMAL": 1,
            "POSITION": 0,
            "TANGENT": 2
          },
          "indices": 3,
          "material": 0,
          "mode": 4
        }
      ]
    },
    {
      "name": "Batiment_0",
      "primitives": [
        {
          "attributes": {
            "NORMAL": 5,
            "POSITION": 4
          },
          "indices": 6,
          "material": 1,
          "mode": 4
        }
      ]
    },
    {
      "name": "Batiment_1",
      "primitives": [
        {
          "attributes": {
            "NORMAL": 8,
            "POSITION": 7
          },
          "indices": 9,
          "material": 2,
          "mode": 4
        }
      ]
    },
    {
      "name": "Batiment_2",
      "primitives": [
        {
          "attributes": {
            "NORMAL": 11,
            "POSITION": 10
          },
          "indices": 12,
          "material": 3,
          "mode": 4
        }
      ]
    },
    {
      "name": "Batiment_3",
      "primitives": [
        {
          "attributes": {
            "NORMAL": 14,
            "POSITION": 13
          },
          "indices": 15,
          "material": 4,
          "mode": 4
        }
      ]
    },
    {
      "name": "Batiment_4",
      "primitives": [
        {
          "attributes": {
            "NORMAL": 17,
            "POSITION": 16
          },
          "indices": 18,
          "material": 5,
          "mode": 4
        }
      ]
    }
  ],
  "nodes": [
    {
      "children": [
        1
      ],
      "name": "RootNode (gltf orientation matrix)",
      "rotation": [
        -0.70710678118654746,
        -0,
        -0,
        0.70710678118654757
      ]
    },
    {
      "children": [
        2
      ],
      "name": "RootNode (model correction matrix)"
    },
    {
      "children": [
        3,
        11
      ],
      "name": "Root"
    },
    {
      "children": [
        4,
        5
      ],
      "name": "RES_T3_16_WEILL_02"
    },
    {
      "mesh": 0,
      "name": "RES_T3_16_WEILL_02_0"
    },
    {
      "children": [
        6,
        7,
        8,
        9,
        10
      ],
      "name": "Batiment"
    },
    {
      "mesh": 1,
      "name": "Batiment_0"
    },
    {
      "mesh": 2,
      "name": "Batiment_1"
    },
    {
      "mesh": 3,
      "name": "Batiment_2"
    },
    {
      "mesh": 4,
      "name": "Batiment_3"
    },
    {
      "mesh": 5,
      "name": "Batiment_4"
    },
    {
      "children": [
        12
      ],
      "matrix": [
        1,
        0,
        0,
        0,
        0,
        1,
        0,
        0,
        0,
        0,
        1,
        0,
        0,
        -3.7662100000000001,
        0,
        1
      ],
      "name": "Hemi"
    },
    {
      "name": "Hemi"
    }
  ],
  "scene": 0,
  "scenes": [
    {
      "name": "OSG_Scene",
      "nodes": [
        0
      ]
    }
  ]
}

